<?xml version="1.0" standalone="no"?>
<!DOCTYPE svg PUBLIC "-//W3C//DTD SVG 20010904//EN"
 "http://www.w3.org/TR/2001/REC-SVG-20010904/DTD/svg10.dtd">
<svg version="1.0" xmlns="http://www.w3.org/2000/svg"
 width="1024.000000pt" height="1024.000000pt" viewBox="0 0 1024.000000 1024.000000"
 preserveAspectRatio="xMidYMid meet">

<g transform="translate(0.000000,1024.000000) scale(0.100000,-0.100000)"
fill="#000000" stroke="none">
<path d="M4295 8259 c-360 -35 -676 -256 -839 -585 -56 -115 -106 -307 -106
-410 l0 -44 -637 0 c-690 0 -745 -3 -900 -55 -366 -123 -629 -427 -702 -810
-21 -109 -21 -130 -21 -1725 0 -1588 0 -1617 21 -1723 81 -431 396 -751 829
-845 68 -15 356 -16 3105 -20 2177 -2 3065 0 3153 8 263 24 480 122 656 297
159 158 253 337 296 561 20 105 20 139 20 1722 0 1583 0 1617 -20 1722 -44
229 -138 406 -301 565 -163 158 -347 251 -570 288 -77 12 -208 15 -730 15
l-636 0 -6 78 c-32 408 -314 774 -698 908 -165 57 -157 57 -1024 59 -440 2
-840 -1 -890 -6z m1087 -1795 c615 -84 1126 -454 1409 -1016 74 -147 140 -353
169 -528 21 -123 24 -394 6 -530 -82 -617 -460 -1145 -1019 -1422 -443 -220
-974 -250 -1442 -81 -513 184 -919 586 -1111 1099 -174 465 -147 1020 72 1455
250 500 669 842 1204 984 197 53 497 69 712 39z"/>
<path d="M4936 5664 c-333 -66 -625 -292 -765 -594 -72 -155 -104 -349 -89
-535 36 -442 345 -806 788 -927 74 -20 108 -23 260 -23 152 0 186 3 260 23
282 77 517 256 656 499 107 188 152 398 132 623 -40 464 -392 846 -861 935
-97 18 -287 18 -381 -1z"/>
</g>
</svg>
