<?xml version="1.0" standalone="no"?>
<!DOCTYPE svg PUBLIC "-//W3C//DTD SVG 20010904//EN"
 "http://www.w3.org/TR/2001/REC-SVG-20010904/DTD/svg10.dtd">
<svg version="1.0" xmlns="http://www.w3.org/2000/svg"
 width="500.000000pt" height="500.000000pt" viewBox="0 0 500.000000 500.000000"
 preserveAspectRatio="xMidYMid meet">

<g transform="translate(0.000000,500.000000) scale(0.100000,-0.100000)"
fill="#000000" stroke="none">
<path d="M1953 3407 c-24 -11 -43 -26 -43 -33 0 -7 32 -80 71 -163 39 -83 69
-158 65 -166 -4 -12 -74 -49 -201 -105 -71 -32 -76 -39 -58 -82 17 -44 33 -47
90 -19 122 63 223 110 223 106 0 -3 12 1 28 8 34 18 79 32 70 22 -4 -4 -1 -20
8 -36 8 -16 11 -29 7 -29 -5 0 0 -5 10 -11 18 -10 18 -12 -5 -36 -22 -23 -23
-34 -26 -169 l-3 -144 29 -30 30 -30 226 0 225 0 12 -34 c7 -19 15 -33 19 -31
9 6 6 -38 -4 -53 -4 -8 -19 -12 -31 -10 -18 4 -22 1 -20 -16 2 -25 140 -302
154 -310 13 -9 61 15 61 29 0 7 -20 56 -45 110 -25 54 -44 99 -42 102 12 11
52 -45 102 -144 l57 -112 53 26 52 26 -43 94 c-24 52 -44 99 -44 104 0 16 25
9 37 -11 12 -18 20 -16 170 62 87 44 162 84 166 88 5 4 -4 33 -20 63 l-28 55
-145 -70 c-166 -80 -190 -90 -189 -80 1 4 0 10 -1 15 -1 4 -3 10 -4 15 -4 12
-30 67 -36 72 -3 3 -23 42 -45 88 -22 46 -47 91 -56 101 -12 12 -18 41 -21 95
-3 71 -6 80 -31 102 -22 19 -40 24 -83 24 -49 0 -55 2 -64 25 -13 34 -65 55
-137 55 -68 0 -103 -15 -121 -53 -13 -26 -52 -39 -52 -16 0 8 -56 131 -77 170
-2 4 13 17 34 29 21 12 35 19 31 15 -4 -4 2 -23 12 -43 11 -21 23 -49 29 -63
5 -15 19 -29 30 -32 33 -8 27 23 -29 140 -39 80 -49 113 -45 134 4 18 -1 41
-15 68 -23 45 -23 45 -51 31 -15 -9 -17 -15 -9 -30 21 -39 28 -67 20 -80 -6
-9 -23 16 -54 79 -26 50 -53 94 -61 97 -18 7 -55 -13 -55 -30 0 -8 9 -33 20
-57 11 -24 20 -50 20 -56 0 -32 -23 -6 -65 72 -26 47 -50 85 -53 84 -4 0 -26
-10 -49 -22z m632 -611 c101 -77 43 -246 -85 -246 -126 0 -186 169 -87 244 57
43 117 44 172 2z m235 -298 c0 -14 -41 -29 -61 -23 -19 6 -18 9 13 30 31 21
47 19 48 -7z"/>
<path d="M2445 2745 c-50 -49 -15 -135 55 -135 41 0 80 39 80 80 0 41 -39 80
-80 80 -19 0 -40 -9 -55 -25z"/>
<path d="M1764 3126 l-162 -81 26 -55 c15 -30 27 -56 28 -58 2 -3 34 12 236
107 l107 50 -17 38 c-27 59 -42 83 -50 81 -4 0 -80 -37 -168 -82z"/>
<path d="M1433 3159 c-24 -11 -43 -24 -43 -29 0 -5 36 -84 81 -177 44 -92 88
-185 96 -205 8 -21 19 -38 24 -38 16 0 99 44 99 53 0 17 -199 417 -207 416 -4
0 -27 -9 -50 -20z"/>
<path d="M1338 3044 c-16 -8 -28 -16 -28 -18 0 -2 34 -74 75 -160 l74 -157 31
16 c16 8 30 18 30 20 0 8 -148 315 -152 315 -2 -1 -15 -8 -30 -16z"/>
<path d="M1293 2889 c-9 -9 -7 -21 7 -50 23 -44 31 -51 50 -39 12 8 11 16 -8
54 -23 48 -31 53 -49 35z"/>
<path d="M1744 2695 c9 -101 15 -112 46 -87 l24 19 -28 67 c-40 95 -50 95 -42
1z"/>
<path d="M3320 2730 c-19 -11 -38 -21 -43 -23 -6 -2 184 -411 199 -426 6 -7
104 41 104 51 0 18 -206 418 -215 417 -5 0 -26 -9 -45 -19z"/>
<path d="M3475 2733 c-17 -9 -31 -17 -33 -18 -2 -2 32 -73 75 -158 l78 -155
31 16 31 17 -76 157 -76 156 -30 -15z"/>
<path d="M3117 2651 c-139 -68 -151 -78 -138 -112 21 -56 32 -56 151 2 79 38
112 59 115 74 15 74 15 95 3 94 -7 0 -66 -27 -131 -58z"/>
<path d="M3610 2670 c-11 -7 -11 -15 5 -50 22 -48 31 -56 50 -40 12 10 12 17
-5 50 -23 45 -31 52 -50 40z"/>
<path d="M2666 2207 c-17 -12 -17 -15 5 -60 23 -48 33 -54 59 -38 12 8 10 17
-10 60 -26 56 -28 57 -54 38z"/>
</g>
</svg>
